<?xml version="1.0" encoding="utf-8"?>
<!-- Generator: Adobe Illustrator 22.1.0, SVG Export Plug-In . SVG Version: 6.00 Build 0)  -->
<svg version="1.1" id="Layer_1" xmlns="http://www.w3.org/2000/svg" xmlns:xlink="http://www.w3.org/1999/xlink" x="0px" y="0px"
	 viewBox="0 0 100.1 114.2" style="enable-background:new 0 0 100.1 114.2;" xml:space="preserve">
<style type="text/css">
	.st0{enable-background:new    ;}
	.st1{opacity:0.5216;enable-background:new    ;}
	.st2{fill:#CFDBC5;}
	.st3{fill:#FFFFFF;}
</style>
<g id="Layer_30">
</g>
<g id="Shape_4_1_" class="st0">
</g>
<g id="Ellipse_1_1_" class="st0">
</g>
<g id="Shape_2_1_" class="st0">
</g>
<g id="Layer_1_xA0_Image_1_">
</g>
<g id="LUXURY_BELL_TENT_HIRE">
</g>
<g id="_x32_Posh">
</g>
<g id="_x32_Pitch">
</g>
<g id="Shape_9_1_" class="st1">
</g>
<g id="Rectangle_1_1_" class="st0">
</g>
<g id="Rectangle_1_copy_1_" class="st0">
</g>
<g id="Shape_7_2_" class="st0">
</g>
<g id="Shape_6_1_" class="st0">
</g>
<g id="Shape_6_copy_2_1_" class="st0">
</g>
<g id="Shape_6_copy_1_" class="st0">
</g>
<g id="Shape_7_4_" class="st0">
</g>
<g id="Shape_8_1_" class="st0">
</g>
<g id="Shape_8_copy_1_" class="st0">
</g>
<g id="Halloween_Black_Moon_Phase_Shape._Attribute_as_Freepik_from_Flaticon.com_1_" class="st0">
</g>
<g id="Shape_5_1_" class="st0">
</g>
<g id="Shape_5_copy_1_" class="st0">
</g>
<g id="Shape_5_copy_3_1_" class="st0">
</g>
<g id="Shape_5_copy_5_1_" class="st0">
</g>
<g id="Shape_5_copy_9_1_" class="st0">
</g>
<g id="Shape_5_copy_7_1_" class="st0">
</g>
<g id="Shape_5_copy_2_1_" class="st0">
</g>
<g id="Shape_5_copy_4_1_" class="st0">
</g>
<g id="Shape_5_copy_6_1_" class="st0">
</g>
<g id="Shape_5_copy_8_1_" class="st0">
</g>
<g id="Shape_5_copy_10_1_" class="st0">
	<g>
		<g id="Shape_8_copy">
			<path class="st2" d="M49.9,4.4c0,0,19.1-1.7,23.6,13.9l2.1-4.8C75.2,14.5,68.7,1.3,49.9,4.4z"/>
		</g>
		<g id="Shape_2_3_">
			<g>
				<path class="st2" d="M50.4,13L12,61.3c0,0,14.1-6.1,29.4-7.3l9-16.9l8.9,16.8c0,0,12.5,0.2,29.5,7.2L50.4,13z"/>
			</g>
		</g>
		
			<image style="overflow:visible;enable-background:new    ;" width="15" height="15" id="Layer_1_xA0_Image" xlink:href="E8A085BBBF5520DC.png"  transform="matrix(7.234676e-02 0 0 7.234676e-02 67.116 39.2153)">
		</image>
		<g id="Shape_6_3_">
			<g>
				<polygon class="st3" points="77.9,16.3 76.1,15.4 75.6,13.3 74.1,14.8 72,14.6 73,16.6 72.2,18.6 74.2,18.2 75.8,19.6 
					76.1,17.4 				"/>
			</g>
		</g>
		<g id="Shape_6_copy_3_">
			<g>
				<polygon class="st3" points="72.4,19.5 71.3,19.3 70.8,18.3 70.3,19.3 69.2,19.5 69.9,20.4 69.8,21.5 70.8,21 71.8,21.5 
					71.7,20.4 				"/>
			</g>
		</g>
		<g id="Shape_8_3_">
			<path class="st2" d="M50.9,9.7c0,0,9.5-1,11.8,8.6l1.6-4.8C64.4,13.4,60.3,7.7,50.9,9.7z"/>
		</g>
		<g id="Shape_6_copy_2">
			<g>
				<polygon class="st3" points="67.6,15.6 65.4,15.1 64.4,13.1 63.3,15.1 61.1,15.6 62.6,17.4 62.4,19.6 64.4,18.6 66.4,19.6 
					66.1,17.4 				"/>
			</g>
		</g>
		<g id="Halloween_Black_Moon_Phase_Shape._Attribute_as_Freepik_from_Flaticon.com_3_">
			<g>
				<path class="st3" d="M35.7,7.5c1.3,0.9,2.1,2.4,2.1,4.1c0,2.7-2.1,4.9-4.6,4.9c-1.1,0-2.1-0.4-2.9-1.1l0,0
					c0.8,2,2.7,3.4,4.9,3.4c2.9,0,5.3-2.5,5.3-5.7C40.5,10.2,38.4,7.8,35.7,7.5z"/>
			</g>
		</g>
		<g>
			<path class="st3" d="M12.4,99.4H9.7v-4.1h0.6v3.6h2.1V99.4z"/>
			<path class="st3" d="M16.4,95.3H17V98c0,0.3,0,0.5-0.1,0.7s-0.2,0.3-0.3,0.5c-0.1,0.1-0.3,0.2-0.5,0.3c-0.2,0.1-0.4,0.1-0.6,0.1
				c-0.5,0-0.9-0.1-1.2-0.3c-0.3-0.2-0.4-0.6-0.4-1v-2.8h0.6v2.6c0,0.4,0.1,0.7,0.3,0.8c0.2,0.2,0.4,0.2,0.8,0.2
				c0.3,0,0.6-0.1,0.7-0.3c0.2-0.2,0.2-0.5,0.2-0.8v-2.7H16.4z"/>
			<path class="st3" d="M19.8,97.3l-1.4-2h0.7l0.9,1.4l0.2,0.3l0.2-0.3l0.9-1.4h0.6l-1.4,2l1.5,2.1h-0.7l-1-1.4l-0.2-0.4L20,98
				l-1,1.4h-0.6L19.8,97.3z"/>
			<path class="st3" d="M26,95.3h0.6V98c0,0.3,0,0.5-0.1,0.7s-0.2,0.3-0.3,0.5c-0.1,0.1-0.3,0.2-0.5,0.3c-0.2,0.1-0.4,0.1-0.6,0.1
				c-0.5,0-0.9-0.1-1.2-0.3c-0.3-0.2-0.4-0.6-0.4-1v-2.8H24v2.6c0,0.4,0.1,0.7,0.3,0.8c0.2,0.2,0.4,0.2,0.8,0.2
				c0.3,0,0.6-0.1,0.7-0.3C26,98.6,26,98.3,26,98V95.3z"/>
			<path class="st3" d="M28.3,95.3c0.1,0,0.2,0,0.3,0c0.1,0,0.2,0,0.3,0s0.2,0,0.3,0c0.1,0,0.2,0,0.3,0c0.2,0,0.4,0,0.6,0.1
				c0.2,0,0.3,0.1,0.5,0.2c0.1,0.1,0.3,0.2,0.3,0.4c0.1,0.1,0.1,0.3,0.1,0.5s0,0.3-0.1,0.4s-0.1,0.3-0.2,0.4s-0.2,0.2-0.3,0.3
				c-0.1,0.1-0.3,0.1-0.4,0.2l0.3,0.2l1.1,1.6h-0.7l-1.2-1.7l-0.6-0.1v1.8h-0.6C28.3,99.6,28.3,95.3,28.3,95.3z M29.5,95.7
				c-0.1,0-0.1,0-0.2,0s-0.1,0-0.2,0s-0.1,0-0.2,0h-0.1v1.4h0.5c0.1,0,0.3,0,0.4,0S29.9,97,30,97c0.1-0.1,0.2-0.1,0.2-0.2
				c0.1-0.1,0.1-0.2,0.1-0.4c0-0.2-0.1-0.4-0.2-0.5C30,95.8,29.8,95.7,29.5,95.7z"/>
			<path class="st3" d="M33.5,97.8L32,95.3h0.7l1,1.8l0.1,0.4l0,0L34,97l1-1.7h0.6l-1.5,2.5v1.6h-0.6V97.8z"/>
			<path class="st3" d="M41.9,96.2c0,0.1,0,0.2-0.1,0.3c0,0.1-0.1,0.2-0.2,0.3c-0.1,0.1-0.2,0.2-0.3,0.2c-0.1,0.1-0.2,0.1-0.4,0.1
				l0,0c0.1,0,0.2,0,0.4,0.1c0.1,0,0.2,0.1,0.3,0.2s0.2,0.2,0.2,0.3c0.1,0.1,0.1,0.3,0.1,0.4c0,0.2,0,0.4-0.1,0.6s-0.2,0.3-0.4,0.4
				s-0.3,0.2-0.5,0.2s-0.4,0.1-0.6,0.1c-0.1,0-0.2,0-0.3,0s-0.2,0-0.3,0s-0.2,0-0.3,0s-0.2,0-0.3,0v-4.1c0.2,0,0.4,0,0.6-0.1
				c0.2,0,0.4,0,0.7,0c0.2,0,0.3,0,0.5,0s0.3,0.1,0.5,0.2c0.1,0.1,0.3,0.2,0.4,0.3C41.9,95.9,41.9,96,41.9,96.2z M40.1,97.1
				c0.1,0,0.2,0,0.3,0s0.2,0,0.2,0c0.1,0,0.2-0.1,0.3-0.1s0.2-0.1,0.2-0.1c0.1-0.1,0.1-0.1,0.2-0.2c0-0.1,0.1-0.2,0.1-0.3
				c0-0.1,0-0.2-0.1-0.3c-0.1-0.1-0.1-0.1-0.2-0.2c-0.1,0-0.2-0.1-0.3-0.1s-0.2,0-0.3,0s-0.3,0-0.4,0c-0.1,0-0.2,0-0.3,0v1.3
				C39.8,97.1,40.1,97.1,40.1,97.1z M39.7,98.9L39.7,98.9c0.2,0,0.2,0,0.3,0c0.1,0,0.1,0,0.2,0c0.1,0,0.1,0,0.2,0c0.1,0,0.3,0,0.4,0
				c0.1,0,0.2-0.1,0.3-0.1c0.1-0.1,0.2-0.1,0.2-0.2c0.1-0.1,0.1-0.2,0.1-0.3c0-0.2,0-0.3-0.1-0.4s-0.2-0.2-0.3-0.2s-0.2-0.1-0.4-0.1
				c-0.1,0-0.3,0-0.4,0h-0.6L39.7,98.9L39.7,98.9z"/>
			<path class="st3" d="M43.6,95.3h2.5v0.5h-1.9V97H46v0.5h-1.7v1.3h1.9v0.5h-2.5v-4H43.6z"/>
			<path class="st3" d="M50.5,99.4h-2.7v-4.1h0.6v3.6h2.1C50.5,98.9,50.5,99.4,50.5,99.4z"/>
			<path class="st3" d="M54.5,99.4h-2.7v-4.1h0.6v3.6h2.1C54.5,98.9,54.5,99.4,54.5,99.4z"/>
			<path class="st3" d="M60.8,95.8h-1.4v3.6h-0.6v-3.6h-1.4v-0.5h3.4V95.8z"/>
			<path class="st3" d="M62.2,95.3h2.5v0.5h-1.9V97h1.7v0.5h-1.7v1.3h1.9v0.5h-2.5L62.2,95.3L62.2,95.3z"/>
			<path class="st3" d="M67.2,96.8l-0.4-0.6l0,0l0.1,0.6v2.6h-0.6v-4.2h0.3l2.1,2.7l0.3,0.5l0,0l-0.1-0.5v-2.6h0.6v4.2h-0.3
				L67.2,96.8z"/>
			<path class="st3" d="M74.4,95.8H73v3.6h-0.6v-3.6H71v-0.5h3.4V95.8z"/>
			<path class="st3" d="M80.6,97.6h-2.1v1.8h-0.6v-4.1h0.6v1.8h2.1v-1.8h0.6v4.1h-0.6V97.6z"/>
			<path class="st3" d="M83.3,95.7h-0.5v-0.4h1.5v0.4h-0.5v3.4h0.5v0.4h-1.5V99h0.5V95.7z"/>
			<path class="st3" d="M86,95.3c0.1,0,0.2,0,0.3,0c0.1,0,0.2,0,0.3,0s0.2,0,0.3,0c0.1,0,0.2,0,0.3,0c0.2,0,0.4,0,0.6,0.1
				c0.2,0,0.3,0.1,0.5,0.2c0.1,0.1,0.3,0.2,0.3,0.4c0.1,0.1,0.1,0.3,0.1,0.5s0,0.3-0.1,0.4s-0.1,0.3-0.2,0.4s-0.2,0.2-0.3,0.3
				c-0.1,0.1-0.3,0.1-0.4,0.2L88,98l1.1,1.6h-0.7l-1.2-1.7l-0.6-0.1v1.8H86V95.3z M87.2,95.7c-0.1,0-0.1,0-0.2,0s-0.1,0-0.2,0
				s-0.1,0-0.2,0h-0.1v1.4H87c0.1,0,0.3,0,0.4,0s0.2-0.1,0.3-0.1c0.1-0.1,0.2-0.1,0.2-0.2c0.1-0.1,0.1-0.2,0.1-0.4
				c0-0.2-0.1-0.4-0.2-0.5C87.7,95.8,87.5,95.7,87.2,95.7z"/>
			<path class="st3" d="M90.5,95.3H93v0.5h-1.9V97h1.7v0.5h-1.7v1.3H93v0.5h-2.5V95.3z"/>
		</g>
		<g>
			<path class="st3" d="M13.7,71.4c0,0.7-0.1,1.4-0.3,2.2c-0.2,0.7-0.5,1.5-0.8,2.2s-0.7,1.4-1,2c-0.4,0.6-0.7,1.2-1.1,1.7l-0.9,0.8
				v0.1l1.2-0.3h3.1v2.1H6.8v-1.4c0.3-0.4,0.6-0.8,0.9-1.2c0.3-0.5,0.7-0.9,1-1.4s0.7-1,1-1.6c0.3-0.5,0.6-1.1,0.8-1.6
				s0.4-1.1,0.6-1.6c0.1-0.5,0.2-1,0.2-1.5c0-0.6-0.1-1-0.4-1.4c-0.3-0.4-0.7-0.5-1.3-0.5c-0.4,0-0.7,0.1-1.1,0.2s-0.6,0.3-0.9,0.6
				L6.7,69c0.4-0.4,0.9-0.7,1.5-0.9c0.6-0.2,1.2-0.3,2-0.3c0.5,0,0.9,0.1,1.4,0.2c0.4,0.2,0.8,0.4,1.1,0.7c0.3,0.3,0.5,0.7,0.7,1.2
				C13.6,70.3,13.7,70.8,13.7,71.4z"/>
			<path class="st3" d="M16.8,70c0.4-0.1,0.9-0.2,1.4-0.2c0.5-0.1,1-0.1,1.5-0.1s1.1,0,1.6,0.1s1,0.3,1.4,0.6c0.4,0.3,0.7,0.7,1,1.2
				s0.4,1.2,0.4,2.1c0,0.8-0.1,1.4-0.3,2c-0.2,0.5-0.5,1-0.9,1.3s-0.8,0.6-1.3,0.7c-0.5,0.2-1,0.2-1.5,0.2c0,0-0.1,0-0.2,0
				s-0.2,0-0.3,0c-0.1,0-0.2,0-0.3,0S19,78,19,78v4.2h-2.2V70z M19,76c0.1,0,0.2,0,0.4,0.1c0.2,0,0.3,0,0.4,0c0.3,0,0.5,0,0.7-0.1
				s0.4-0.2,0.6-0.4c0.2-0.2,0.3-0.4,0.4-0.7c0.1-0.3,0.2-0.7,0.2-1.1s0-0.7-0.1-1s-0.2-0.5-0.4-0.6c-0.2-0.2-0.4-0.3-0.6-0.3
				c-0.2-0.1-0.5-0.1-0.7-0.1c-0.4,0-0.7,0-0.9,0.1V76z"/>
			<path class="st3" d="M25,77.8c0-1.6,0.3-2.7,0.9-3.5s1.5-1.1,2.5-1.1c1.2,0,2,0.4,2.6,1.2c0.6,0.8,0.9,1.9,0.9,3.5
				s-0.3,2.7-0.9,3.5s-1.5,1.1-2.6,1.1C26.1,82.4,25,80.9,25,77.8z M27.1,77.8c0,0.9,0.1,1.6,0.3,2c0.2,0.5,0.5,0.7,1,0.7
				c0.4,0,0.8-0.2,1-0.6s0.3-1.1,0.3-2.1c0-0.9-0.1-1.6-0.3-2.1c-0.2-0.5-0.5-0.7-1-0.7c-0.4,0-0.7,0.2-1,0.6
				C27.3,76.1,27.1,76.8,27.1,77.8z"/>
			<path class="st3" d="M36.8,79.9c0-0.2-0.1-0.5-0.2-0.6c-0.2-0.2-0.4-0.3-0.6-0.5c-0.2-0.1-0.5-0.3-0.8-0.4
				c-0.3-0.2-0.5-0.3-0.8-0.6c-0.2-0.2-0.4-0.5-0.6-0.8s-0.2-0.7-0.2-1.2c0-0.8,0.2-1.5,0.7-1.9c0.4-0.4,1.1-0.7,2-0.7
				c0.5,0,1,0.1,1.5,0.2s0.8,0.2,1.1,0.4l-0.5,1.6c-0.2-0.1-0.5-0.2-0.8-0.3C37.1,75,36.8,75,36.5,75c-0.6,0-0.9,0.2-0.9,0.7
				c0,0.2,0.1,0.4,0.2,0.6c0.2,0.1,0.4,0.3,0.6,0.4c0.2,0.1,0.5,0.3,0.8,0.4c0.3,0.2,0.5,0.3,0.8,0.6c0.2,0.2,0.4,0.5,0.6,0.8
				c0.2,0.3,0.2,0.7,0.2,1.2c0,0.8-0.2,1.5-0.7,1.9c-0.5,0.5-1.2,0.7-2.2,0.7c-0.5,0-1-0.1-1.4-0.2c-0.5-0.1-0.8-0.3-1.1-0.5
				l0.6-1.7c0.2,0.1,0.5,0.3,0.9,0.4c0.3,0.1,0.7,0.2,1,0.2s0.5-0.1,0.7-0.2C36.7,80.3,36.8,80.1,36.8,79.9z"/>
			<path class="st3" d="M45,82.2v-5.3c0-0.6-0.1-1.1-0.2-1.4c-0.1-0.3-0.4-0.4-0.8-0.4c-0.3,0-0.5,0.1-0.8,0.3
				c-0.2,0.2-0.4,0.5-0.5,0.8v6h-2.1V69.9h2.1v4.3h0.1c0.2-0.3,0.5-0.6,0.9-0.7c0.3-0.2,0.8-0.3,1.3-0.3c0.4,0,0.7,0.1,0.9,0.2
				c0.3,0.1,0.5,0.3,0.7,0.5s0.3,0.6,0.4,1c0.1,0.4,0.1,0.9,0.1,1.6v5.8H45V82.2z"/>
		</g>
		<g>
			<path class="st3" d="M58.8,71.4c0,0.7-0.1,1.4-0.3,2.2c-0.2,0.7-0.5,1.5-0.8,2.2s-0.7,1.4-1,2c-0.4,0.6-0.7,1.2-1.1,1.7l-0.9,0.8
				v0.1l1.2-0.3H59v2.1h-7.1v-1.4c0.3-0.4,0.6-0.8,0.9-1.2c0.3-0.5,0.7-0.9,1-1.4s0.7-1,1-1.6c0.3-0.5,0.6-1.1,0.8-1.6
				s0.4-1.1,0.6-1.6c0.1-0.5,0.2-1,0.2-1.5c0-0.6-0.1-1-0.4-1.4c-0.3-0.4-0.7-0.5-1.3-0.5c-0.4,0-0.7,0.1-1.1,0.2s-0.6,0.3-0.9,0.6
				L51.9,69c0.4-0.4,0.9-0.7,1.5-0.9c0.6-0.2,1.2-0.3,2-0.3c0.5,0,0.9,0.1,1.4,0.2c0.4,0.2,0.8,0.4,1.1,0.7c0.3,0.3,0.5,0.7,0.7,1.2
				C58.7,70.3,58.8,70.8,58.8,71.4z"/>
			<path class="st3" d="M61.9,70c0.4-0.1,0.9-0.2,1.4-0.2c0.5-0.1,1-0.1,1.5-0.1s1.1,0,1.6,0.1s1,0.3,1.4,0.6c0.4,0.3,0.7,0.7,1,1.2
				s0.4,1.2,0.4,2.1c0,0.8-0.1,1.4-0.3,2c-0.2,0.5-0.5,1-0.9,1.3s-0.8,0.6-1.3,0.7c-0.5,0.2-1,0.2-1.5,0.2c0,0-0.1,0-0.2,0
				s-0.2,0-0.3,0c-0.1,0-0.2,0-0.3,0c-0.1,0-0.2,0-0.2,0v4.2H62L61.9,70L61.9,70z M64.1,76c0.1,0,0.2,0,0.4,0.1c0.2,0,0.3,0,0.4,0
				c0.3,0,0.5,0,0.7-0.1s0.4-0.2,0.6-0.4c0.2-0.2,0.3-0.4,0.4-0.7c0.1-0.3,0.2-0.7,0.2-1.1s0-0.7-0.1-1s-0.2-0.5-0.4-0.6
				c-0.2-0.2-0.4-0.3-0.6-0.3c-0.2-0.1-0.5-0.1-0.7-0.1c-0.4,0-0.7,0-0.9,0.1V76z"/>
			<path class="st3" d="M70.9,70.9c0-0.4,0.1-0.6,0.3-0.9c0.2-0.2,0.5-0.3,0.9-0.3s0.7,0.1,1,0.3c0.2,0.2,0.4,0.5,0.4,0.9
				s-0.1,0.6-0.4,0.9c-0.2,0.2-0.6,0.3-1,0.3s-0.7-0.1-0.9-0.3S70.9,71.3,70.9,70.9z M71.1,73.4h2.1v8.8h-2.1V73.4z"/>
			<path class="st3" d="M74.9,73.4h1v-1.7L78,71v2.3h1.7v1.9H78V79c0,0.5,0,0.9,0.1,1.1s0.3,0.3,0.5,0.3s0.3,0,0.5-0.1
				c0.1,0,0.3-0.1,0.5-0.2l0.3,1.7c-0.3,0.1-0.6,0.2-0.9,0.3c-0.3,0.1-0.7,0.1-1.1,0.1c-0.7,0-1.2-0.2-1.5-0.6s-0.5-1-0.5-1.9v-4.6
				h-1V73.4z"/>
			<path class="st3" d="M86.6,81.7c-0.3,0.2-0.6,0.4-1.1,0.5c-0.4,0.1-0.8,0.2-1.2,0.2c-0.6,0-1.1-0.1-1.5-0.3
				c-0.4-0.2-0.7-0.5-1-0.9s-0.4-0.9-0.6-1.5c-0.1-0.6-0.2-1.2-0.2-1.9c0-1.5,0.3-2.7,0.8-3.5c0.6-0.8,1.4-1.2,2.4-1.2
				c0.5,0,1,0,1.3,0.1s0.6,0.2,0.9,0.4L86,75.4c-0.2-0.1-0.4-0.2-0.6-0.2c-0.2-0.1-0.4-0.1-0.7-0.1c-0.5,0-0.9,0.2-1.1,0.6
				s-0.4,1.1-0.4,2.1c0,0.8,0.1,1.4,0.4,1.9s0.7,0.8,1.2,0.8c0.3,0,0.5,0,0.7-0.1s0.4-0.2,0.6-0.3L86.6,81.7z"/>
			<path class="st3" d="M92.6,82.2v-5.3c0-0.6-0.1-1.1-0.2-1.4s-0.4-0.4-0.8-0.4c-0.3,0-0.5,0.1-0.8,0.3c-0.2,0.2-0.4,0.5-0.5,0.8v6
				h-2.1V69.9h2.1v4.3h0.1c0.2-0.3,0.5-0.6,0.9-0.7c0.3-0.2,0.8-0.3,1.3-0.3c0.4,0,0.7,0.1,0.9,0.2c0.3,0.1,0.5,0.3,0.7,0.5
				s0.3,0.6,0.4,1s0.1,0.9,0.1,1.6v5.8h-2.1V82.2z"/>
		</g>
		<g id="Rectangle_1">
			<g>
				<rect x="7.2" y="90.2" class="st2" width="87.6" height="1.1"/>
			</g>
		</g>
		<g id="Rectangle_1_copy">
			<g>
				<rect x="7.2" y="103.1" class="st2" width="87.6" height="1.1"/>
			</g>
		</g>
	</g>
</g>
</svg>
