<svg enable-background="new 0 0 100.1 114.2" viewBox="0 0 100.1 114.2" xmlns="http://www.w3.org/2000/svg" xmlns:xlink="http://www.w3.org/1999/xlink"><g enable-background="new"><path d="m49.9 4.4s19.1-1.7 23.6 13.9l2.1-4.8c-.4 1-6.9-12.2-25.7-9.1z" fill="#cfdbc5"/><path d="m50.4 13-38.4 48.3s14.1-6.1 29.4-7.3l9-16.9 8.9 16.8s12.5.2 29.5 7.2z" fill="#cfdbc5"/><image height="15" overflow="visible" transform="matrix(.07234676 0 0 .07234676 67.116 39.2153)" width="15" xlink:href="E8A085BBBF5520DC.png"/><path d="m77.9 16.3-1.8-.9-.5-2.1-1.5 1.5-2.1-.2 1 2-.8 2 2-.4 1.6 1.4.3-2.2z" fill="#fff"/><path d="m72.4 19.5-1.1-.2-.5-1-.5 1-1.1.2.7.9-.1 1.1 1-.5 1 .5-.1-1.1z" fill="#fff"/><path d="m50.9 9.7s9.5-1 11.8 8.6l1.6-4.8c.1-.1-4-5.8-13.4-3.8z" fill="#cfdbc5"/><g fill="#fff"><path d="m67.6 15.6-2.2-.5-1-2-1.1 2-2.2.5 1.5 1.8-.2 2.2 2-1 2 1-.3-2.2z"/><path d="m35.7 7.5c1.3.9 2.1 2.4 2.1 4.1 0 2.7-2.1 4.9-4.6 4.9-1.1 0-2.1-.4-2.9-1.1.8 2 2.7 3.4 4.9 3.4 2.9 0 5.3-2.5 5.3-5.7 0-2.9-2.1-5.3-4.8-5.6z"/><path d="m12.4 99.4h-2.7v-4.1h.6v3.6h2.1z"/><path d="m16.4 95.3h.6v2.7c0 .3 0 .5-.1.7s-.2.3-.3.5c-.1.1-.3.2-.5.3s-.4.1-.6.1c-.5 0-.9-.1-1.2-.3s-.4-.6-.4-1v-2.8h.6v2.6c0 .4.1.7.3.8.2.2.4.2.8.2.3 0 .6-.1.7-.3.2-.2.2-.5.2-.8v-2.7z"/><path d="m19.8 97.3-1.4-2h.7l.9 1.4.2.3.2-.3.9-1.4h.6l-1.4 2 1.5 2.1h-.7l-1-1.4-.2-.4-.1.4-1 1.4h-.6z"/><path d="m26 95.3h.6v2.7c0 .3 0 .5-.1.7s-.2.3-.3.5c-.1.1-.3.2-.5.3s-.4.1-.6.1c-.5 0-.9-.1-1.2-.3s-.4-.6-.4-1v-2.8h.5v2.6c0 .4.1.7.3.8.2.2.4.2.8.2.3 0 .6-.1.7-.3.2-.2.2-.5.2-.8z"/><path d="m28.3 95.3h.3.3s.2 0 .3 0h.3c.2 0 .4 0 .6.1.2 0 .3.1.5.2.1.1.3.2.3.4.1.1.1.3.1.5s0 .3-.1.4-.1.3-.2.4-.2.2-.3.3-.3.1-.4.2l.3.2 1.1 1.6h-.7l-1.2-1.7-.6-.1v1.8h-.6zm1.2.4c-.1 0-.1 0-.2 0s-.1 0-.2 0-.1 0-.2 0h-.1v1.4h.5.4s.2-.1.3-.1c.1-.1.2-.1.2-.2.1-.1.1-.2.1-.4s-.1-.4-.2-.5-.3-.2-.6-.2z"/><path d="m33.5 97.8-1.5-2.5h.7l1 1.8.1.4.2-.5 1-1.7h.6l-1.5 2.5v1.6h-.6z"/><path d="m41.9 96.2c0 .1 0 .2-.1.3 0 .1-.1.2-.2.3s-.2.2-.3.2c-.1.1-.2.1-.4.1.1 0 .2 0 .4.1.1 0 .2.1.3.2s.2.2.2.3c.1.1.1.3.1.4 0 .2 0 .4-.1.6s-.2.3-.4.4-.3.2-.5.2-.4.1-.6.1c-.1 0-.2 0-.3 0s-.2 0-.3 0-.2 0-.3 0-.2 0-.3 0v-4.1c.2 0 .4 0 .6-.1h.7.5s.3.1.5.2c.1.1.3.2.4.3.1.2.1.3.1.5zm-1.8.9h.3s.2 0 .2 0c.1 0 .2-.1.3-.1s.2-.1.2-.1c.1-.1.1-.1.2-.2 0-.1.1-.2.1-.3s0-.2-.1-.3-.1-.1-.2-.2c-.1 0-.2-.1-.3-.1s-.2 0-.3 0-.3 0-.4 0-.2 0-.3 0v1.3zm-.4 1.8h.3.2.2.4c.1 0 .2-.1.3-.1.1-.1.2-.1.2-.2.1-.1.1-.2.1-.3 0-.2 0-.3-.1-.4s-.2-.2-.3-.2-.2-.1-.4-.1c-.1 0-.3 0-.4 0h-.6z"/><path d="m43.6 95.3h2.5v.5h-1.9v1.2h1.8v.5h-1.7v1.3h1.9v.5h-2.5v-4z"/><path d="m50.5 99.4h-2.7v-4.1h.6v3.6h2.1z"/><path d="m54.5 99.4h-2.7v-4.1h.6v3.6h2.1z"/><path d="m60.8 95.8h-1.4v3.6h-.6v-3.6h-1.4v-.5h3.4z"/><path d="m62.2 95.3h2.5v.5h-1.9v1.2h1.7v.5h-1.7v1.3h1.9v.5h-2.5z"/><path d="m67.2 96.8-.4-.6.1.6v2.6h-.6v-4.2h.3l2.1 2.7.3.5-.1-.5v-2.6h.6v4.2h-.3z"/><path d="m74.4 95.8h-1.4v3.6h-.6v-3.6h-1.4v-.5h3.4z"/><path d="m80.6 97.6h-2.1v1.8h-.6v-4.1h.6v1.8h2.1v-1.8h.6v4.1h-.6z"/><path d="m83.3 95.7h-.5v-.4h1.5v.4h-.5v3.4h.5v.4h-1.5v-.5h.5z"/><path d="m86 95.3h.3.3s.2 0 .3 0h.3c.2 0 .4 0 .6.1.2 0 .3.1.5.2.1.1.3.2.3.4.1.1.1.3.1.5s0 .3-.1.4-.1.3-.2.4-.2.2-.3.3-.3.1-.4.2l.3.2 1.1 1.6h-.7l-1.2-1.7-.6-.1v1.8h-.6zm1.2.4c-.1 0-.1 0-.2 0s-.1 0-.2 0-.1 0-.2 0h-.1v1.4h.5.4s.2-.1.3-.1c.1-.1.2-.1.2-.2.1-.1.1-.2.1-.4s-.1-.4-.2-.5-.3-.2-.6-.2z"/><path d="m90.5 95.3h2.5v.5h-1.9v1.2h1.7v.5h-1.7v1.3h1.9v.5h-2.5z"/><path d="m13.7 71.4c0 .7-.1 1.4-.3 2.2-.2.7-.5 1.5-.8 2.2s-.7 1.4-1 2c-.4.6-.7 1.2-1.1 1.7l-.9.8v.1l1.2-.3h3.1v2.1h-7.1v-1.4c.3-.4.6-.8.9-1.2.3-.5.7-.9 1-1.4s.7-1 1-1.6c.3-.5.6-1.1.8-1.6s.4-1.1.6-1.6c.1-.5.2-1 .2-1.5 0-.6-.1-1-.4-1.4s-.7-.5-1.3-.5c-.4 0-.7.1-1.1.2s-.6.3-.9.6l-.9-1.8c.4-.4.9-.7 1.5-.9s1.2-.3 2-.3c.5 0 .9.1 1.4.2.4.2.8.4 1.1.7s.5.7.7 1.2c.2.4.3.9.3 1.5z"/><path d="m16.8 70c.4-.1.9-.2 1.4-.2.5-.1 1-.1 1.5-.1s1.1 0 1.6.1 1 .3 1.4.6.7.7 1 1.2.4 1.2.4 2.1c0 .8-.1 1.4-.3 2-.2.5-.5 1-.9 1.3s-.8.6-1.3.7c-.5.2-1 .2-1.5.2 0 0-.1 0-.2 0s-.2 0-.3 0-.2 0-.3 0-.3.1-.3.1v4.2h-2.2zm2.2 6c.1 0 .2 0 .4.1h.4c.3 0 .5 0 .7-.1s.4-.2.6-.4.3-.4.4-.7.2-.7.2-1.1 0-.7-.1-1-.2-.5-.4-.6c-.2-.2-.4-.3-.6-.3-.2-.1-.5-.1-.7-.1-.4 0-.7 0-.9.1z"/><path d="m25 77.8c0-1.6.3-2.7.9-3.5s1.5-1.1 2.5-1.1c1.2 0 2 .4 2.6 1.2s.9 1.9.9 3.5-.3 2.7-.9 3.5-1.5 1.1-2.6 1.1c-2.3-.1-3.4-1.6-3.4-4.7zm2.1 0c0 .9.1 1.6.3 2 .2.5.5.7 1 .7.4 0 .8-.2 1-.6s.3-1.1.3-2.1c0-.9-.1-1.6-.3-2.1s-.5-.7-1-.7c-.4 0-.7.2-1 .6-.1.5-.3 1.2-.3 2.2z"/><path d="m36.8 79.9c0-.2-.1-.5-.2-.6-.2-.2-.4-.3-.6-.5-.2-.1-.5-.3-.8-.4-.3-.2-.5-.3-.8-.6-.2-.2-.4-.5-.6-.8s-.2-.7-.2-1.2c0-.8.2-1.5.7-1.9.4-.4 1.1-.7 2-.7.5 0 1 .1 1.5.2s.8.2 1.1.4l-.5 1.6c-.2-.1-.5-.2-.8-.3-.5-.1-.8-.1-1.1-.1-.6 0-.9.2-.9.7 0 .2.1.4.2.6.2.1.4.3.6.4s.5.3.8.4c.3.2.5.3.8.6.2.2.4.5.6.8s.2.7.2 1.2c0 .8-.2 1.5-.7 1.9-.5.5-1.2.7-2.2.7-.5 0-1-.1-1.4-.2-.5-.1-.8-.3-1.1-.5l.6-1.7c.2.1.5.3.9.4.3.1.7.2 1 .2s.5-.1.7-.2c.1 0 .2-.2.2-.4z"/><path d="m45 82.2v-5.3c0-.6-.1-1.1-.2-1.4s-.4-.4-.8-.4c-.3 0-.5.1-.8.3-.2.2-.4.5-.5.8v6h-2.1v-12.3h2.1v4.3h.1c.2-.3.5-.6.9-.7.3-.2.8-.3 1.3-.3.4 0 .7.1.9.2.3.1.5.3.7.5s.3.6.4 1 .1.9.1 1.6v5.8h-2.1z"/><path d="m58.8 71.4c0 .7-.1 1.4-.3 2.2-.2.7-.5 1.5-.8 2.2s-.7 1.4-1 2c-.4.6-.7 1.2-1.1 1.7l-.9.8v.1l1.2-.3h3.1v2.1h-7.1v-1.4c.3-.4.6-.8.9-1.2.3-.5.7-.9 1-1.4s.7-1 1-1.6c.3-.5.6-1.1.8-1.6s.4-1.1.6-1.6c.1-.5.2-1 .2-1.5 0-.6-.1-1-.4-1.4s-.7-.5-1.3-.5c-.4 0-.7.1-1.1.2s-.6.3-.9.6l-.8-1.8c.4-.4.9-.7 1.5-.9s1.2-.3 2-.3c.5 0 .9.1 1.4.2.4.2.8.4 1.1.7s.5.7.7 1.2c.1.4.2.9.2 1.5z"/><path d="m61.9 70c.4-.1.9-.2 1.4-.2.5-.1 1-.1 1.5-.1s1.1 0 1.6.1 1 .3 1.4.6.7.7 1 1.2.4 1.2.4 2.1c0 .8-.1 1.4-.3 2-.2.5-.5 1-.9 1.3s-.8.6-1.3.7c-.5.2-1 .2-1.5.2 0 0-.1 0-.2 0s-.2 0-.3 0-.2 0-.3 0-.2 0-.2 0v4.2h-2.2zm2.2 6c.1 0 .2 0 .4.1h.4c.3 0 .5 0 .7-.1s.4-.2.6-.4.3-.4.4-.7.2-.7.2-1.1 0-.7-.1-1-.2-.5-.4-.6c-.2-.2-.4-.3-.6-.3-.2-.1-.5-.1-.7-.1-.4 0-.7 0-.9.1z"/><path d="m70.9 70.9c0-.4.1-.6.3-.9.2-.2.5-.3.9-.3s.7.1 1 .3c.2.2.4.5.4.9s-.1.6-.4.9c-.2.2-.6.3-1 .3s-.7-.1-.9-.3-.3-.5-.3-.9zm.2 2.5h2.1v8.8h-2.1z"/><path d="m74.9 73.4h1v-1.7l2.1-.7v2.3h1.7v1.9h-1.7v3.8c0 .5 0 .9.1 1.1s.3.3.5.3.3 0 .5-.1c.1 0 .3-.1.5-.2l.3 1.7c-.3.1-.6.2-.9.3s-.7.1-1.1.1c-.7 0-1.2-.2-1.5-.6s-.5-1-.5-1.9v-4.6h-1z"/><path d="m86.6 81.7c-.3.2-.6.4-1.1.5-.4.1-.8.2-1.2.2-.6 0-1.1-.1-1.5-.3s-.7-.5-1-.9-.4-.9-.6-1.5c-.1-.6-.2-1.2-.2-1.9 0-1.5.3-2.7.8-3.5.6-.8 1.4-1.2 2.4-1.2.5 0 1 0 1.3.1s.6.2.9.4l-.4 1.8c-.2-.1-.4-.2-.6-.2-.2-.1-.4-.1-.7-.1-.5 0-.9.2-1.1.6s-.4 1.1-.4 2.1c0 .8.1 1.4.4 1.9s.7.8 1.2.8c.3 0 .5 0 .7-.1s.4-.2.6-.3z"/><path d="m92.6 82.2v-5.3c0-.6-.1-1.1-.2-1.4s-.4-.4-.8-.4c-.3 0-.5.1-.8.3-.2.2-.4.5-.5.8v6h-2.1v-12.3h2.1v4.3h.1c.2-.3.5-.6.9-.7.3-.2.8-.3 1.3-.3.4 0 .7.1.9.2.3.1.5.3.7.5s.3.6.4 1 .1.9.1 1.6v5.8h-2.1z"/></g><path d="m7.2 90.2h87.6v1.1h-87.6z" fill="#cfdbc5"/><path d="m7.2 103.1h87.6v1.1h-87.6z" fill="#cfdbc5"/></g></svg>