<?xml version="1.0" encoding="utf-8"?>
<!-- Generator: Adobe Illustrator 22.1.0, SVG Export Plug-In . SVG Version: 6.00 Build 0)  -->
<svg version="1.1" xmlns="http://www.w3.org/2000/svg" xmlns:xlink="http://www.w3.org/1999/xlink" x="0px" y="0px"
	 viewBox="0 0 100.1 114.2" style="enable-background:new 0 0 100.1 114.2;" xml:space="preserve">
<style type="text/css">
	.st0{enable-background:new    ;}
	.st1{opacity:0.5216;enable-background:new    ;}
	.st2{filter:url(#Adobe_OpacityMaskFilter);}
	.st3{mask:url(#Shape_8_2_);enable-background:new    ;}
	.st4{filter:url(#Adobe_OpacityMaskFilter_1_);}
	.st5{mask:url(#Shape_8_copy_2_);enable-background:new    ;}
	.st6{fill-rule:evenodd;clip-rule:evenodd;fill:#86A8C4;}
	.st7{fill-rule:evenodd;clip-rule:evenodd;fill:#FFFFFF;}
	.st8{fill:#86A8C4;}
	.st9{fill:none;}
	.st10{fill:#FFFFFF;}
	.st11{opacity:0.4;}
</style>
<g id="Layer_30">
</g>
<g id="Shape_4_1_" class="st0">
</g>
<g id="Ellipse_1_1_" class="st0">
</g>
<g id="Shape_2_1_" class="st0">
</g>
<g id="Layer_1_xA0_Image_1_">
</g>
<g id="LUXURY_BELL_TENT_HIRE">
</g>
<g id="_x32_Posh">
</g>
<g id="_x32_Pitch">
</g>
<g id="Shape_9_1_" class="st1">
</g>
<g id="Rectangle_1_1_" class="st0">
</g>
<g id="Rectangle_1_copy_1_" class="st0">
</g>
<g id="Shape_7_2_" class="st0">
</g>
<g id="Shape_6_1_" class="st0">
</g>
<g id="Shape_6_copy_2_1_" class="st0">
</g>
<g id="Shape_6_copy_1_" class="st0">
</g>
<g id="Shape_7_4_" class="st0">
</g>
<defs>
	<filter id="Adobe_OpacityMaskFilter" filterUnits="userSpaceOnUse">
		<feColorMatrix  type="matrix" values="1 0 0 0 0  0 1 0 0 0  0 0 1 0 0  0 0 0 1 0"/>
	</filter>
</defs>
<mask maskUnits="userSpaceOnUse" id="Shape_8_2_">
	<g id="Shape_8Opacity_Mask_6_" class="st2">
		
			<image style="overflow:visible;" width="1635" height="1635" id="Shape_8Opacity_Mask_7_" xlink:href="E8A085BBBF5520DC.jpg"  transform="matrix(0.1316 0 0 0.1316 -59.1109 -46.3347)">
		</image>
	</g>
</mask>
<g id="Shape_8_1_" class="st3">
</g>
<defs>
	<filter id="Adobe_OpacityMaskFilter_1_" filterUnits="userSpaceOnUse">
		<feColorMatrix  type="matrix" values="1 0 0 0 0  0 1 0 0 0  0 0 1 0 0  0 0 0 1 0"/>
	</filter>
</defs>
<mask maskUnits="userSpaceOnUse" id="Shape_8_copy_2_">
	<g id="Shape_8_copyOpacity_Mask_4_" class="st4">
		
			<image style="overflow:visible;" width="3267" height="2632" id="Shape_8_copyOpacity_Mask_5_" xlink:href="E8A085BBBF5520DD.jpg"  transform="matrix(0.1316 0 0 0.1316 -166.0029 -85.5635)">
		</image>
	</g>
</mask>
<g id="Shape_8_copy_1_" class="st5">
</g>
<g id="Halloween_Black_Moon_Phase_Shape._Attribute_as_Freepik_from_Flaticon.com_1_" class="st0">
</g>
<g id="Shape_5_1_" class="st0">
</g>
<g id="Shape_5_copy_1_" class="st0">
</g>
<g id="Shape_5_copy_3_1_" class="st0">
</g>
<g id="Shape_5_copy_5_1_" class="st0">
</g>
<g id="Shape_5_copy_9_1_" class="st0">
</g>
<g id="Shape_5_copy_7_1_" class="st0">
</g>
<g id="Shape_5_copy_2_1_" class="st0">
</g>
<g id="Shape_5_copy_4_1_" class="st0">
</g>
<g id="Shape_5_copy_6_1_" class="st0">
</g>
<g id="Shape_5_copy_8_1_" class="st0">
</g>
<g id="Shape_5_copy_10_1_" class="st0">
	<g>
		<g id="Ellipse_1">
			<path class="st6" d="M95.3,45.7c0,6-1.2,11.8-3.3,17c-10.4-5.6-25.1-9.1-41.4-9.1c-17.2,0-32.6,3.9-43,10.1
				c-2.4-5.5-3.7-11.6-3.7-18C3.9,20.5,24.4,0,49.6,0C74.8,0,95.3,20.5,95.3,45.7z"/>
		</g>
		<g id="Shape_2_3_">
			<g>
				<path class="st7" d="M50.4,13L12,61.3c0,0,14.1-6.1,29.4-7.3l9-16.9l8.9,16.8c0,0,12.5,0.2,29.5,7.2L50.4,13z"/>
			</g>
		</g>
		
			<image style="overflow:visible;" width="6" height="10" id="Layer_1_xA0_Image" xlink:href="E8A085BBBF5520DC.png"  transform="matrix(0.1316 0 0 0.1316 67.2638 39.0999)">
		</image>
		<path class="st8" d="M50.9,3.2C-5.7,10.3,7.5,63.7,7.5,63.7l5-2.7c3.3-1.2,6.1-2.3,9.6-3.3l28.2-36.8l29,36.8
			c2.5,0.8,5,1.6,7.2,2.6l5.6,1.8C100,6.5,50.9,3.2,50.9,3.2z"/>
		<g id="Shape_7_xA0_Clipping_Path">
			<path class="st9" d="M35,16.3l15.8-4.3C50.8,11.9,43.4,8.2,35,16.3z"/>
		</g>
		<g id="Shape_6_3_">
			<g>
				<polygon class="st7" points="72.2,13.1 70.6,12.8 69.8,11.3 69,12.8 67.3,13.1 68.5,14.4 68.3,16.1 69.8,15.4 71.3,16.1 
					71.1,14.4 				"/>
			</g>
		</g>
		<g id="Shape_6_copy_2">
			<g>
				<polygon class="st7" points="63.6,15.4 61.4,14.9 60.4,12.9 59.3,14.9 57.1,15.4 58.6,17.1 58.4,19.4 60.4,18.4 62.4,19.4 
					62.1,17.1 				"/>
			</g>
		</g>
		<g id="Shape_6_copy_3_">
			<g>
				<polygon class="st7" points="68.4,19.5 67.3,19.3 66.8,18.3 66.3,19.3 65.2,19.5 65.9,20.4 65.8,21.5 66.8,21 67.8,21.5 
					67.7,20.4 				"/>
			</g>
		</g>
		<g id="Shape_7_xA0_Clipping_Path_1_">
			<path class="st9" d="M44.2,10.8l16.1,2.7C60.4,13.4,55.2,6.9,44.2,10.8z"/>
		</g>
		<g id="Shape_8_3_">
			<path class="st7" d="M46.9,9.7c0,0,9.5-1,11.8,8.6l1.6-4.8C60.4,13.4,56.3,7.7,46.9,9.7z"/>
		</g>
		<g id="Shape_8_copy">
			<path class="st7" d="M45.9,4.4c0,0,19.1-1.7,23.6,13.9l2.1-4.8C71.6,13.4,64.7,1.3,45.9,4.4z"/>
		</g>
		<g id="Halloween_Black_Moon_Phase_Shape._Attribute_as_Freepik_from_Flaticon.com_3_">
			<g>
				<path class="st7" d="M35.7,7.5c1.3,0.9,2.1,2.4,2.1,4.1c0,2.7-2.1,4.9-4.6,4.9c-1.1,0-2.1-0.4-2.9-1.1v0c0.8,2,2.7,3.4,4.9,3.4
					c2.9,0,5.3-2.5,5.3-5.7C40.5,10.2,38.4,7.8,35.7,7.5z"/>
			</g>
		</g>
		<g>
			<path class="st10" d="M12.4,109.4H9.7v-4.1h0.6v3.6h2.1V109.4z"/>
			<path class="st10" d="M16.4,105.3h0.6v2.7c0,0.3,0,0.5-0.1,0.7c-0.1,0.2-0.2,0.3-0.3,0.5c-0.1,0.1-0.3,0.2-0.5,0.3
				c-0.2,0.1-0.4,0.1-0.6,0.1c-0.5,0-0.9-0.1-1.2-0.3c-0.3-0.2-0.4-0.6-0.4-1v-2.8h0.6v2.6c0,0.4,0.1,0.7,0.3,0.8
				c0.2,0.2,0.4,0.2,0.8,0.2c0.3,0,0.6-0.1,0.7-0.3c0.2-0.2,0.2-0.5,0.2-0.8V105.3z"/>
			<path class="st10" d="M19.8,107.3l-1.4-2h0.7l0.9,1.4l0.2,0.3l0.2-0.3l0.9-1.4h0.6l-1.4,2l1.5,2.1h-0.7l-1-1.4l-0.2-0.4L20,108
				l-1,1.4h-0.6L19.8,107.3z"/>
			<path class="st10" d="M26,105.3h0.6v2.7c0,0.3,0,0.5-0.1,0.7c-0.1,0.2-0.2,0.3-0.3,0.5c-0.1,0.1-0.3,0.2-0.5,0.3
				c-0.2,0.1-0.4,0.1-0.6,0.1c-0.5,0-0.9-0.1-1.2-0.3c-0.3-0.2-0.4-0.6-0.4-1v-2.8H24v2.6c0,0.4,0.1,0.7,0.3,0.8
				c0.2,0.2,0.4,0.2,0.8,0.2c0.3,0,0.6-0.1,0.7-0.3c0.2-0.2,0.2-0.5,0.2-0.8V105.3z"/>
			<path class="st10" d="M28.3,105.3c0.1,0,0.2,0,0.3,0c0.1,0,0.2,0,0.3,0s0.2,0,0.3,0c0.1,0,0.2,0,0.3,0c0.2,0,0.4,0,0.6,0.1
				c0.2,0,0.3,0.1,0.5,0.2c0.1,0.1,0.3,0.2,0.3,0.4c0.1,0.1,0.1,0.3,0.1,0.5c0,0.2,0,0.3-0.1,0.4c-0.1,0.1-0.1,0.3-0.2,0.4
				c-0.1,0.1-0.2,0.2-0.3,0.3c-0.1,0.1-0.3,0.1-0.4,0.2l0.3,0.2l1.1,1.6h-0.7l-1.2-1.7l-0.6-0.1v1.8h-0.6V105.3z M29.5,105.7
				c-0.1,0-0.1,0-0.2,0c-0.1,0-0.1,0-0.2,0c-0.1,0-0.1,0-0.2,0c0,0-0.1,0-0.1,0v1.4h0.5c0.1,0,0.3,0,0.4,0c0.1,0,0.2-0.1,0.3-0.1
				c0.1-0.1,0.2-0.1,0.2-0.2c0.1-0.1,0.1-0.2,0.1-0.4c0-0.2-0.1-0.4-0.2-0.5C30,105.8,29.8,105.7,29.5,105.7z"/>
			<path class="st10" d="M33.5,107.8l-1.5-2.5h0.7l1,1.8l0.1,0.4h0L34,107l1-1.7h0.6l-1.5,2.5v1.6h-0.6V107.8z"/>
			<path class="st10" d="M41.9,106.2c0,0.1,0,0.2-0.1,0.3c0,0.1-0.1,0.2-0.2,0.3c-0.1,0.1-0.2,0.2-0.3,0.2c-0.1,0.1-0.2,0.1-0.4,0.1
				v0c0.1,0,0.2,0,0.4,0.1c0.1,0,0.2,0.1,0.3,0.2c0.1,0.1,0.2,0.2,0.2,0.3c0.1,0.1,0.1,0.3,0.1,0.4c0,0.2,0,0.4-0.1,0.6
				c-0.1,0.2-0.2,0.3-0.4,0.4c-0.2,0.1-0.3,0.2-0.5,0.2c-0.2,0-0.4,0.1-0.6,0.1c-0.1,0-0.2,0-0.3,0c-0.1,0-0.2,0-0.3,0
				c-0.1,0-0.2,0-0.3,0c-0.1,0-0.2,0-0.3,0v-4.1c0.2,0,0.4,0,0.6-0.1c0.2,0,0.4,0,0.7,0c0.2,0,0.3,0,0.5,0c0.2,0,0.3,0.1,0.5,0.2
				c0.1,0.1,0.3,0.2,0.4,0.3C41.9,105.9,41.9,106,41.9,106.2z M40.1,107.1c0.1,0,0.2,0,0.3,0c0.1,0,0.2,0,0.2,0
				c0.1,0,0.2-0.1,0.3-0.1c0.1,0,0.2-0.1,0.2-0.1c0.1-0.1,0.1-0.1,0.2-0.2c0-0.1,0.1-0.2,0.1-0.3c0-0.1,0-0.2-0.1-0.3
				c-0.1-0.1-0.1-0.1-0.2-0.2c-0.1,0-0.2-0.1-0.3-0.1c-0.1,0-0.2,0-0.3,0c-0.1,0-0.3,0-0.4,0c-0.1,0-0.2,0-0.3,0v1.3H40.1z
				 M39.7,108.9c0,0,0.1,0,0.1,0c0.1,0,0.1,0,0.2,0c0.1,0,0.1,0,0.2,0c0.1,0,0.1,0,0.2,0c0.1,0,0.3,0,0.4,0c0.1,0,0.2-0.1,0.3-0.1
				c0.1-0.1,0.2-0.1,0.2-0.2c0.1-0.1,0.1-0.2,0.1-0.3c0-0.2,0-0.3-0.1-0.4c-0.1-0.1-0.2-0.2-0.3-0.2c-0.1,0-0.2-0.1-0.4-0.1
				c-0.1,0-0.3,0-0.4,0h-0.6V108.9z"/>
			<path class="st10" d="M43.6,105.3h2.5v0.5h-1.9v1.2H46v0.5h-1.7v1.3h1.9v0.5h-2.5V105.3z"/>
			<path class="st10" d="M50.5,109.4h-2.7v-4.1h0.6v3.6h2.1V109.4z"/>
			<path class="st10" d="M54.5,109.4h-2.7v-4.1h0.6v3.6h2.1V109.4z"/>
			<path class="st10" d="M60.8,105.8h-1.4v3.6h-0.6v-3.6h-1.4v-0.5h3.4V105.8z"/>
			<path class="st10" d="M62.2,105.3h2.5v0.5h-1.9v1.2h1.7v0.5h-1.7v1.3h1.9v0.5h-2.5V105.3z"/>
			<path class="st10" d="M67.2,106.8l-0.4-0.6h0l0.1,0.6v2.6h-0.6v-4.2h0.3l2.1,2.7l0.3,0.5h0l-0.1-0.5v-2.6h0.6v4.2h-0.3
				L67.2,106.8z"/>
			<path class="st10" d="M74.4,105.8H73v3.6h-0.6v-3.6H71v-0.5h3.4V105.8z"/>
			<path class="st10" d="M80.6,107.6h-2.1v1.8h-0.6v-4.1h0.6v1.8h2.1v-1.8h0.6v4.1h-0.6V107.6z"/>
			<path class="st10" d="M83.3,105.7h-0.5v-0.4h1.5v0.4h-0.5v3.4h0.5v0.4h-1.5V109h0.5V105.7z"/>
			<path class="st10" d="M86,105.3c0.1,0,0.2,0,0.3,0c0.1,0,0.2,0,0.3,0s0.2,0,0.3,0c0.1,0,0.2,0,0.3,0c0.2,0,0.4,0,0.6,0.1
				c0.2,0,0.3,0.1,0.5,0.2c0.1,0.1,0.3,0.2,0.3,0.4c0.1,0.1,0.1,0.3,0.1,0.5c0,0.2,0,0.3-0.1,0.4c-0.1,0.1-0.1,0.3-0.2,0.4
				c-0.1,0.1-0.2,0.2-0.3,0.3c-0.1,0.1-0.3,0.1-0.4,0.2l0.3,0.2l1.1,1.6h-0.7l-1.2-1.7l-0.6-0.1v1.8H86V105.3z M87.2,105.7
				c-0.1,0-0.1,0-0.2,0c-0.1,0-0.1,0-0.2,0c-0.1,0-0.1,0-0.2,0c0,0-0.1,0-0.1,0v1.4h0.5c0.1,0,0.3,0,0.4,0c0.1,0,0.2-0.1,0.3-0.1
				c0.1-0.1,0.2-0.1,0.2-0.2c0.1-0.1,0.1-0.2,0.1-0.4c0-0.2-0.1-0.4-0.2-0.5C87.7,105.8,87.5,105.7,87.2,105.7z"/>
			<path class="st10" d="M90.5,105.3H93v0.5h-1.9v1.2h1.7v0.5h-1.7v1.3h1.9v0.5h-2.5V105.3z"/>
		</g>
		<g>
			<path class="st10" d="M13.7,81.4c0,0.7-0.1,1.4-0.3,2.2c-0.2,0.7-0.5,1.5-0.8,2.2c-0.3,0.7-0.7,1.4-1,2c-0.4,0.6-0.7,1.2-1.1,1.7
				l-0.9,0.8v0.1l1.2-0.3h3.1v2.1H6.8v-1.4c0.3-0.4,0.6-0.8,0.9-1.2c0.3-0.5,0.7-0.9,1-1.4c0.3-0.5,0.7-1,1-1.6
				c0.3-0.5,0.6-1.1,0.8-1.6c0.2-0.5,0.4-1.1,0.6-1.6c0.1-0.5,0.2-1,0.2-1.5c0-0.6-0.1-1-0.4-1.4c-0.3-0.4-0.7-0.5-1.3-0.5
				c-0.4,0-0.7,0.1-1.1,0.2s-0.6,0.3-0.9,0.6L6.7,79c0.4-0.4,0.9-0.7,1.5-0.9c0.6-0.2,1.2-0.3,2-0.3c0.5,0,0.9,0.1,1.4,0.2
				c0.4,0.2,0.8,0.4,1.1,0.7c0.3,0.3,0.5,0.7,0.7,1.2C13.6,80.3,13.7,80.8,13.7,81.4z"/>
			<path class="st10" d="M16.8,80c0.4-0.1,0.9-0.2,1.4-0.2c0.5-0.1,1-0.1,1.5-0.1c0.5,0,1.1,0,1.6,0.1c0.5,0.1,1,0.3,1.4,0.6
				c0.4,0.3,0.7,0.7,1,1.2c0.3,0.5,0.4,1.2,0.4,2.1c0,0.8-0.1,1.4-0.3,2c-0.2,0.5-0.5,1-0.9,1.3c-0.4,0.3-0.8,0.6-1.3,0.7
				c-0.5,0.2-1,0.2-1.5,0.2c0,0-0.1,0-0.2,0c-0.1,0-0.2,0-0.3,0c-0.1,0-0.2,0-0.3,0S19,88,19,88v4.2h-2.2V80z M19,86
				c0.1,0,0.2,0,0.4,0.1c0.2,0,0.3,0,0.4,0c0.3,0,0.5,0,0.7-0.1c0.2-0.1,0.4-0.2,0.6-0.4c0.2-0.2,0.3-0.4,0.4-0.7
				c0.1-0.3,0.2-0.7,0.2-1.1c0-0.4,0-0.7-0.1-1c-0.1-0.3-0.2-0.5-0.4-0.6c-0.2-0.2-0.4-0.3-0.6-0.3c-0.2-0.1-0.5-0.1-0.7-0.1
				c-0.4,0-0.7,0-0.9,0.1V86z"/>
			<path class="st10" d="M25,87.8c0-1.6,0.3-2.7,0.9-3.5c0.6-0.8,1.5-1.1,2.5-1.1c1.2,0,2,0.4,2.6,1.2c0.6,0.8,0.9,1.9,0.9,3.5
				c0,1.6-0.3,2.7-0.9,3.5c-0.6,0.8-1.5,1.1-2.6,1.1C26.1,92.4,25,90.9,25,87.8z M27.1,87.8c0,0.9,0.1,1.6,0.3,2
				c0.2,0.5,0.5,0.7,1,0.7c0.4,0,0.8-0.2,1-0.6c0.2-0.4,0.3-1.1,0.3-2.1c0-0.9-0.1-1.6-0.3-2.1c-0.2-0.5-0.5-0.7-1-0.7
				c-0.4,0-0.7,0.2-1,0.6C27.3,86.1,27.1,86.8,27.1,87.8z"/>
			<path class="st10" d="M36.8,89.9c0-0.2-0.1-0.5-0.2-0.6c-0.2-0.2-0.4-0.3-0.6-0.5c-0.2-0.1-0.5-0.3-0.8-0.4
				c-0.3-0.2-0.5-0.3-0.8-0.6c-0.2-0.2-0.4-0.5-0.6-0.8s-0.2-0.7-0.2-1.2c0-0.8,0.2-1.5,0.7-1.9c0.4-0.4,1.1-0.7,2-0.7
				c0.5,0,1,0.1,1.5,0.2c0.5,0.1,0.8,0.2,1.1,0.4l-0.5,1.6c-0.2-0.1-0.5-0.2-0.8-0.3C37.1,85,36.8,85,36.5,85
				c-0.6,0-0.9,0.2-0.9,0.7c0,0.2,0.1,0.4,0.2,0.6c0.2,0.1,0.4,0.3,0.6,0.4c0.2,0.1,0.5,0.3,0.8,0.4c0.3,0.2,0.5,0.3,0.8,0.6
				c0.2,0.2,0.4,0.5,0.6,0.8c0.2,0.3,0.2,0.7,0.2,1.2c0,0.8-0.2,1.5-0.7,1.9c-0.5,0.5-1.2,0.7-2.2,0.7c-0.5,0-1-0.1-1.4-0.2
				c-0.5-0.1-0.8-0.3-1.1-0.5l0.6-1.7c0.2,0.1,0.5,0.3,0.9,0.4c0.3,0.1,0.7,0.2,1,0.2c0.3,0,0.5-0.1,0.7-0.2
				C36.7,90.3,36.8,90.1,36.8,89.9z"/>
			<path class="st10" d="M45,92.2v-5.3c0-0.6-0.1-1.1-0.2-1.4c-0.1-0.3-0.4-0.4-0.8-0.4c-0.3,0-0.5,0.1-0.8,0.3
				c-0.2,0.2-0.4,0.5-0.5,0.8v6h-2.1V79.9h2.1v4.3h0.1c0.2-0.3,0.5-0.6,0.9-0.7c0.3-0.2,0.8-0.3,1.3-0.3c0.4,0,0.7,0.1,0.9,0.2
				c0.3,0.1,0.5,0.3,0.7,0.5c0.2,0.2,0.3,0.6,0.4,1c0.1,0.4,0.1,0.9,0.1,1.6v5.8H45z"/>
		</g>
		<g>
			<path class="st10" d="M58.8,81.4c0,0.7-0.1,1.4-0.3,2.2c-0.2,0.7-0.5,1.5-0.8,2.2c-0.3,0.7-0.7,1.4-1,2c-0.4,0.6-0.7,1.2-1.1,1.7
				l-0.9,0.8v0.1l1.2-0.3H59v2.1h-7.1v-1.4c0.3-0.4,0.6-0.8,0.9-1.2c0.3-0.5,0.7-0.9,1-1.4c0.3-0.5,0.7-1,1-1.6
				c0.3-0.5,0.6-1.1,0.8-1.6c0.2-0.5,0.4-1.1,0.6-1.6c0.1-0.5,0.2-1,0.2-1.5c0-0.6-0.1-1-0.4-1.4c-0.3-0.4-0.7-0.5-1.3-0.5
				c-0.4,0-0.7,0.1-1.1,0.2s-0.6,0.3-0.9,0.6L51.9,79c0.4-0.4,0.9-0.7,1.5-0.9c0.6-0.2,1.2-0.3,2-0.3c0.5,0,0.9,0.1,1.4,0.2
				c0.4,0.2,0.8,0.4,1.1,0.7c0.3,0.3,0.5,0.7,0.7,1.2C58.7,80.3,58.8,80.8,58.8,81.4z"/>
			<path class="st10" d="M61.9,80c0.4-0.1,0.9-0.2,1.4-0.2c0.5-0.1,1-0.1,1.5-0.1c0.5,0,1.1,0,1.6,0.1c0.5,0.1,1,0.3,1.4,0.6
				c0.4,0.3,0.7,0.7,1,1.2c0.3,0.5,0.4,1.2,0.4,2.1c0,0.8-0.1,1.4-0.3,2c-0.2,0.5-0.5,1-0.9,1.3s-0.8,0.6-1.3,0.7
				c-0.5,0.2-1,0.2-1.5,0.2c0,0-0.1,0-0.2,0c-0.1,0-0.2,0-0.3,0c-0.1,0-0.2,0-0.3,0c-0.1,0-0.2,0-0.2,0v4.2h-2.2V80z M64.1,86
				c0.1,0,0.2,0,0.4,0.1c0.2,0,0.3,0,0.4,0c0.3,0,0.5,0,0.7-0.1s0.4-0.2,0.6-0.4c0.2-0.2,0.3-0.4,0.4-0.7c0.1-0.3,0.2-0.7,0.2-1.1
				c0-0.4,0-0.7-0.1-1c-0.1-0.3-0.2-0.5-0.4-0.6c-0.2-0.2-0.4-0.3-0.6-0.3c-0.2-0.1-0.5-0.1-0.7-0.1c-0.4,0-0.7,0-0.9,0.1V86z"/>
			<path class="st10" d="M70.9,80.9c0-0.4,0.1-0.6,0.3-0.9c0.2-0.2,0.5-0.3,0.9-0.3s0.7,0.1,1,0.3c0.2,0.2,0.4,0.5,0.4,0.9
				c0,0.4-0.1,0.6-0.4,0.9c-0.2,0.2-0.6,0.3-1,0.3s-0.7-0.1-0.9-0.3C71,81.6,70.9,81.3,70.9,80.9z M71.1,83.4h2.1v8.8h-2.1V83.4z"/>
			<path class="st10" d="M74.9,83.4h1v-1.7l2.1-0.7v2.3h1.7v1.9H78v3.8c0,0.5,0,0.9,0.1,1.1c0.1,0.2,0.3,0.3,0.5,0.3
				c0.2,0,0.3,0,0.5-0.1c0.1,0,0.3-0.1,0.5-0.2l0.3,1.7c-0.3,0.1-0.6,0.2-0.9,0.3c-0.3,0.1-0.7,0.1-1.1,0.1c-0.7,0-1.2-0.2-1.5-0.6
				c-0.3-0.4-0.5-1-0.5-1.9v-4.6h-1V83.4z"/>
			<path class="st10" d="M86.6,91.7c-0.3,0.2-0.6,0.4-1.1,0.5c-0.4,0.1-0.8,0.2-1.2,0.2c-0.6,0-1.1-0.1-1.5-0.3
				c-0.4-0.2-0.7-0.5-1-0.9c-0.3-0.4-0.4-0.9-0.6-1.5c-0.1-0.6-0.2-1.2-0.2-1.9c0-1.5,0.3-2.7,0.8-3.5c0.6-0.8,1.4-1.2,2.4-1.2
				c0.5,0,1,0,1.3,0.1c0.3,0.1,0.6,0.2,0.9,0.4L86,85.4c-0.2-0.1-0.4-0.2-0.6-0.2c-0.2-0.1-0.4-0.1-0.7-0.1c-0.5,0-0.9,0.2-1.1,0.6
				c-0.2,0.4-0.4,1.1-0.4,2.1c0,0.8,0.1,1.4,0.4,1.9c0.3,0.5,0.7,0.8,1.2,0.8c0.3,0,0.5,0,0.7-0.1c0.2-0.1,0.4-0.2,0.6-0.3
				L86.6,91.7z"/>
			<path class="st10" d="M92.6,92.2v-5.3c0-0.6-0.1-1.1-0.2-1.4c-0.1-0.3-0.4-0.4-0.8-0.4c-0.3,0-0.5,0.1-0.8,0.3
				c-0.2,0.2-0.4,0.5-0.5,0.8v6h-2.1V79.9h2.1v4.3h0.1c0.2-0.3,0.5-0.6,0.9-0.7c0.3-0.2,0.8-0.3,1.3-0.3c0.4,0,0.7,0.1,0.9,0.2
				c0.3,0.1,0.5,0.3,0.7,0.5c0.2,0.2,0.3,0.6,0.4,1c0.1,0.4,0.1,0.9,0.1,1.6v5.8H92.6z"/>
		</g>
		<g id="Rectangle_1">
			<g>
				<rect x="7.2" y="100.2" class="st7" width="87.6" height="1.1"/>
			</g>
		</g>
		<g id="Rectangle_1_copy">
			<g>
				<rect x="7.2" y="113.1" class="st7" width="87.6" height="1.1"/>
			</g>
		</g>
		<g>
			<g id="Shape_5_copy_3">
				<polygon class="st6" points="31.5,60.7 33.9,65.4 35.9,59.8 				"/>
			</g>
			<g id="Shape_5_copy_5_3_">
				<polygon class="st6" points="47,59.3 48.8,64.4 51.5,59.1 				"/>
			</g>
			<g id="Shape_5_copy_7_3_">
				<polygon class="st6" points="62.9,60.2 64,65.4 67.4,60.6 				"/>
			</g>
			<g id="Shape_5_copy_4_3_" class="st11">
				<polygon class="st6" points="38.8,59.7 40.8,64.7 43.3,59.3 				"/>
			</g>
			<g id="Shape_5_copy_6" class="st11">
				<polygon class="st6" points="55.1,59.3 56.8,64.4 59.6,59.2 				"/>
			</g>
			<g id="Shape_5" class="st11">
				<polygon class="st6" points="9.2,68.3 12.4,72.6 13.4,66.7 				"/>
			</g>
			<g id="Shape_5_copy_3_">
				<polygon class="st6" points="16.4,65.3 19.5,69.6 20.6,63.8 				"/>
			</g>
			<g id="Shape_5_copy_9">
				<polygon class="st6" points="79.2,63.6 79.5,68.9 83.6,64.7 				"/>
			</g>
			<g id="Shape_5_copy_2" class="st11">
				<polygon class="st6" points="23.9,62.5 26.6,67.1 28.3,61.3 				"/>
			</g>
			<g id="Shape_5_copy_8_3_" class="st11">
				<polygon class="st6" points="71.5,61.7 72.2,67 75.9,62.4 				"/>
			</g>
			<g id="Shape_5_copy_10" class="st11">
				<polygon class="st6" points="87.3,66.9 87.3,72.2 91.7,68.1 				"/>
			</g>
			<g>
				<path class="st8" d="M0.5,73.9c-0.2,0-0.3-0.1-0.4-0.2c-0.2-0.2-0.1-0.6,0.1-0.8C13.3,63.4,31,58.2,50.1,58.2
					c19,0,36.7,5.2,49.8,14.6c0.2,0.2,0.3,0.5,0.1,0.8c-0.2,0.2-0.5,0.3-0.8,0.1c-12.9-9.3-30.3-14.4-49.1-14.4
					c-18.8,0-36.3,5.1-49.2,14.5C0.8,73.9,0.7,73.9,0.5,73.9z"/>
			</g>
		</g>
	</g>
</g>
</svg>
