<?xml version="1.0" encoding="utf-8"?>
<!-- Generator: Adobe Illustrator 22.1.0, SVG Export Plug-In . SVG Version: 6.00 Build 0)  -->
<svg version="1.1" id="Layer_1" xmlns="http://www.w3.org/2000/svg" xmlns:xlink="http://www.w3.org/1999/xlink" x="0px" y="0px"
	 viewBox="0 0 518.7 143.8" style="enable-background:new 0 0 518.7 143.8;" xml:space="preserve">
<style type="text/css">
	.st0{fill:#D5D5D5;}
</style>
<g id="PzZIBE.tif">
	<g>
		<path class="st0" d="M366,73.5c-1.8,7.2-7.2,10.4-13.4,12.4c-5,1.6-10.3,3.1-15.5,3.3c-12.7,0.7-25.5,1.3-38.2,0.6
			c-10.5-0.7-13.3-5.9-10.7-16.1c-8.8,3.3-17.3,6.7-26.1,9.7c-4.2,1.4-8.6,2.4-13,3c-5.8,0.8-7.7-1.1-8.3-7
			c-0.1-0.8-0.1-1.6-0.2-2.9c-8.9,3.8-17.3,7.7-26,11c-6.2,2.3-12.7,3.7-19.1,5.6c-3.6,1.1-6.9,1.2-9.7-1.7c-3-3.1-0.9-6.2,0.2-9.2
			c0.2-0.6,0.4-1.2,0.9-3c-4.9,1.7-8.8,3.1-12.8,4.4c-2.7,0.9-5.3,2-8,2.6c-1.2,0.3-3.3,0-3.8-0.8c-0.6-1-0.5-3.2,0.2-4.1
			c5.4-7.4,12.9-12,21.9-13.6c3.2-0.6,6.4,0.7,6.3,4.6c1.8,0.6,3.3,1.2,4.8,1.7c-0.6,1.4-1.2,2.9-1.9,4.3c-1.5,3.2-3,6.4-4.5,9.6
			c0.4,0.5,0.7,1.1,1.1,1.6c4.6-0.8,9.4-1,13.7-2.6c11.9-4.5,23.5-10,35.5-14.5c7.2-2.7,10.6-8.5,14.6-14.7c-4.6-0.7-8.9-1.1-13-2
			c-1.5-0.3-4-2-3.9-2.8c0.2-1.7,1.5-3.9,2.9-4.7c3.7-1.8,7.7-3,11.6-4.3c1.2-0.4,2.6-0.8,3.9-0.9c10.3-1,18-6.1,24.7-14
			c7.2-8.5,15.4-16,23.2-24c1.9-2,4.5-4,6.8-1.5c1.2,1.3,1.6,4.8,0.6,6.4c-4.6,7.9-9.6,15.4-14.6,23.1c-0.4,0.7-1,1.3-1.4,1.8
			C352.7,30,410.3,25.2,468,20.4c0.1,0.3,0.2,0.6,0.2,1c-4.8,0.9-9.6,2.1-14.4,2.6c-21,2.1-42,3.9-63,6c-29.6,2.9-59.2,6.2-88.8,9
			c-8,0.8-14.4,3.4-20.5,9.2c-8.5,8-18.7,14.2-28.1,21.3c-2.5,1.9-4.6,4.2-6.5,6.7c-0.8,1.1-1.3,3.8-0.7,4.4c1.1,1,3.4,1.6,4.8,1.1
			c16.4-5.7,33.7-9,48.3-19.2c0.2-0.1,0.6,0,2.2,0c-0.8,2.1-1.2,4-2.2,5.6c-0.8,1.4-2.3,2.4-3.3,3.7c-6.4,7.7-4.9,12.5,5,14.5
			c5.6,1.2,11.7,1.9,17.3,1.3c11.5-1.2,23-3.2,34.4-5.4C358.1,81.3,363.3,79.1,366,73.5z M308.4,11.3c-0.6-0.5-1.2-1.1-1.8-1.6
			c-11.8,7.2-19.7,18.5-29,28.7c5.3-0.9,11.3-1.5,14.5-4.8C298.4,27,303.1,18.9,308.4,11.3z M285.3,42.5
			c-11.5-1.2-25.4,9.3-29.7,22.4C265.9,57.2,275.3,50.1,285.3,42.5z M170.7,77.8c0.2,0.7,0.4,1.4,0.6,2.1c5.7-1.7,11.5-3.3,17.2-5
			c-0.2-0.8-0.5-1.5-0.7-2.3C182.1,74.4,176.4,76.1,170.7,77.8z M255.7,56.5c2.2-2.7,4.4-5.2,6.5-7.8c-0.2-0.4-0.5-0.7-0.7-1.1
			c-3.1,1.4-6.1,2.8-9.3,4.2C253.7,53.8,254.6,55,255.7,56.5z"/>
		<path class="st0" d="M96.4,69.8c-7.1-0.7-13-1.3-18.8-1.6c-1.3-0.1-2.9,0.7-3.8,1.6c-15.4,15.5-30.7,31-45.9,46.7
			c-8.1,8.3-16,16.9-24,25.4c-0.7,0.8-1.7,1.3-2.6,2c-0.4-0.3-0.9-0.6-1.3-0.9c1-1.6,1.7-3.3,2.9-4.6c18.9-20.4,37.9-40.7,56.9-60.9
			c2.8-3,5.9-5.9,8.9-8.8c2.7-2.7,5.1-5.3,5.4-9.6c0.5-5.4,6.1-9.6,12.1-11.1c3-0.7,6.2-1.8,8.4-3.8c13.9-13.1,27.5-26.6,41.2-39.9
			c1.5-1.5,3.2-2.8,4.8-4.2c0.5,0.3,0.9,0.5,1.4,0.8c-0.9,2-1.2,4.5-2.7,6c-9.5,10-19.3,19.7-29,29.5c-1.3,1.3-2.9,2.3-4.3,3.5
			c-10.7,9.2-10.7,9.2-5.5,24c15.6-6.4,31.4-12.3,46.8-19.3c14.9-6.8,29.4-14.6,44.1-22c0.4,0.5,0.8,1,1.2,1.5
			c-1.3,1.4-2.4,3.4-4,4.2c-16.4,8.4-32.7,17-49.4,24.7c-11.6,5.3-23.8,9.3-35.7,14c-1.1,0.5-2.5,2.6-2.3,3.7
			c1.7,10.7,3.2,21.4,5.7,31.9c1.5,6.3,4,12.7,7.4,18.3c5.4,9.1,14.8,12.7,24.8,14.1c14.3,1.9,28.8,2.9,43.2,4.3
			c2.4,0.2,4.8,0.6,7.2,2c-5.3,0-10.7,0.2-16,0c-11.6-0.6-23.2-0.9-34.8-2.2c-20.1-2.3-33.2-13.5-36.8-35.7
			c-1.6-9.7-2.8-19.4-4.2-29.1C97.2,72.4,96.7,70.7,96.4,69.8z M79,63.9c0.3,0.8,0.7,1.6,1,2.4c4.5-0.5,9.1-0.4,13.3-1.7
			c3.9-1.1,1.7-4.4,0.7-6.6c-0.9-2-2-5.1-4.9-3.1C85.5,57.4,82.4,60.8,79,63.9z"/>
		<path class="st0" d="M474.7,72.2c8.3-4.7,16.1-9.5,24.2-13.6c3.4-1.7,7.5-2.8,11.4-3.1c7-0.5,9.8,2.9,7.9,9.8
			c-1.1,3.9-3.2,8.1-6.1,10.9C501.1,86.8,488,93.9,474.2,100c-1.5,0.7-3.2,0.9-4.8,1.2c-0.9,0.2-1.9,0.1-2,0.1
			c-3.4-7.2-6.9-13.7-9.5-20.6c-1.5-4-2.1-8.6-2.1-13c0-4.1,3.1-5.6,7.1-4.9C468.4,63.8,472.6,66.6,474.7,72.2z M470.7,98.2
			c12.2-7.3,23.7-13.6,34.5-20.9c3.7-2.5,5.8-7.4,8.2-11.4c0.5-0.8-1.1-3.9-1.9-4c-3.2-0.2-6.8-0.4-9.8,0.7
			c-5.7,2.1-11.4,4.7-16.6,7.9c-4.7,2.8-10.3,5.2-11.3,11.8c-0.1,0.7-1.3,1.8-1.9,1.8c-0.8-0.1-1.9-0.9-2.1-1.7
			c-0.4-1.2-0.3-2.6-0.2-3.9c0.1-6.1-3-9.5-10-10.3C459,79.3,466.8,87,470.7,98.2z"/>
	</g>
</g>
</svg>
